# File automatically generated by Optim Shi. http://ac.yotesfan.com
# Thanks to Pea for some tips on getting over the final hurdle

# All models and images property of Turbine Entertainment Software. 

# GfxObj 0x01001b0c

mtllib 01001B0C-W942.mtl

# List of geometric vertices, with (x,y,z[,w]) coordinates, w is optional and defaults to 1.0.
v 0.0067222598008811 0.085017003118992 -0.56646400690079
v 0.091694198548794 0.12146999686956 -0.57279497385025
v 0.17666600644588 0.085017003118992 -0.56646400690079
v -0.028474299237132 -0.0029871899168938 -0.55117797851562
v 0.21186299622059 -0.0029871899168938 -0.55117797851562
v 0.17666600644588 -0.090991400182247 -0.53589302301407
v 0.0067222598008811 -0.090991400182247 -0.53589302301407
v 0.091694198548794 -0.12744399905205 -0.529560983181
v 0.14910499751568 0.079690001904964 -0.39209800958633
v 0.18031600117683 -0.0020140199922025 -0.39353600144386
v 0.073755197227001 0.11353299766779 -0.3915019929409
v -0.0015947199426591 0.079690001904964 -0.39209800958633
v -0.032805699855089 -0.0020140199922025 -0.39353600144386
v -0.0015947199426591 -0.083718001842499 -0.39497300982475
v 0.073755197227001 -0.11756099760532 -0.39556899666786
v 0.14910499751568 -0.083718001842499 -0.39497300982475
v 0.18965600430965 0.066923402249813 -0.14534099400043
v 0.27252501249313 0.092941902577877 0.24072800576687
v 0.37289500236511 -0.074247300624847 0.26111200451851
v 0.078341901302338 0.10992900282145 -0.13582399487495
v -0.032971899956465 0.066923402249813 -0.14534099400043
v 0.078341901302338 -0.18373100459576 -0.20080900192261
v -0.032971899956465 -0.14072500169277 -0.19129300117493
v 0.18965600430965 -0.14072500169277 -0.19129300117493
v 0.055079899728298 0.16253599524498 0.14404700696468
v -0.072123102843761 0.093767702579498 0.052357599139214
v -0.1400839984417 -0.073079496622086 -0.0084372498095036
v -0.0790795981884 -0.036900900304317 -0.16831700503826
v -0.054574500769377 -0.24026900529861 -0.019952099770308
v 0.13264399766922 -0.30986300110817 0.039410099387169
v 0.31495401263237 -0.24109399318695 0.17772300541401

# List of texture coordinates, in (u, v [,w]) coordinates, these will vary between 0 and 1, w is optional and defaults to 0.
vt 0.51644897460938 0.81383399665356
vt 0.51756501197815 0.26760298013687
vt 0.66154700517654 0.87973000109196
vt 0.62214201688766 0.26199901103973
vt 0.80664497613907 0.81383399665356
vt 0.72671800851822 0.26760298013687
vt 0.45634800195694 0.65474599599838
vt 0.47424799203873 0.28113001585007
vt 0.86674600839615 0.65474599599838
vt 0.77003502845764 0.28113001585007
vt 0.80664497613907 0.49565798044205
vt 0.72671800851822 0.29465800523758
vt 0.51644897460938 0.49565798044205
vt 0.51756501197815 0.29465800523758
vt 0.66154700517654 0.42976200580597
vt 0.62214201688766 0.3002610206604
vt 0.69279801845551 0.42191499471664
vt 0.73120999336243 0.42064297199249
vt 0.6000639796257 0.42244201898575
vt 0.50732898712158 0.42191499471664
vt 0.46891701221466 0.42064297199249
vt 0.50732898712158 0.41936999559402
vt 0.6000639796257 0.41884297132492
vt 0.69279801845551 0.41936999559402
vt 0.74270498752594 0.6402930021286
vt 0.84469300508499 0.98196070082486
vt 0.804338991642 0.85267899930477
vt 0.96821999549866 1
vt 1 0.49876397848129
vt 0.60570901632309 0.64871498942375
vt 0.46871298551559 0.6402930021286
vt 0.60570901632309 0.59120398759842
vt 0.46871298551559 0.59962600469589
vt 0.74270498752594 0.59962600469589
vt 0.5770800113678 0.89639899879694
vt 0.38045200705528 1
vt 0.42052900791168 0.81525400280952
vt 0.13248300552368 0.85442699491978
vt 0.33688798546791 0.76145100593567
vt 0 0.50123599171638
vt 0.41196700930595 0.61996001005173
vt 0.44212600588799 0.75126099586487
vt 0.16669200360775 0.14732098579407
vt 0.6725389957428 0.80379599332809
vt 0.53165501356125 0
vt 0.89691197872162 0.92620170116425
vt 0.88705098628998 0.14557301998138

# List of vertex normals in (x,y,z) form; normals might not be unit vectors.
vn -0.66468000411987 0.55153399705887 -0.50399398803711
vn 0.14717200398445 0.94304198026657 -0.29834800958633
vn 0.62295997142792 0.32266199588776 -0.71260797977448
vn -0.41659799218178 -0.15531399846077 -0.89572501182556
vn 0.74571800231934 -0.11723999679089 -0.65586602687836
vn 0.56905800104141 -0.53718501329422 -0.62257897853851
vn -0.60347902774811 -0.65745002031326 -0.45118999481201
vn 0.13564999401569 -0.96130299568176 -0.23978100717068
vn 0.61458998918533 0.78812599182129 0.033708199858665
vn 0.99919199943542 0.03252049908042 -0.023617099970579
vn -0.086195297539234 0.99595898389816 0.025207800790668
vn -0.7109580039978 0.70200401544571 -0.041591998189688
vn -0.99603998661041 0.0011362599907443 -0.088895596563816
vn -0.71164202690125 -0.67454397678375 -0.19635599851608
vn -0.088733799755573 -0.99143999814987 -0.095780499279499
vn 0.62003499269485 -0.78016000986099 -0.083110302686691
vn 0.65257602930069 0.74327701330185 -0.14725199341774
vn 0.13011699914932 0.57086497545242 0.81066799163818
vn 0.97156101465225 0.024332100525498 0.2355339974165
vn -0.053121998906136 0.99534302949905 -0.080441400408745
vn -0.71797698736191 0.67729598283768 -0.16056099534035
vn -0.030278300866485 -0.9145240187645 -0.4033969938755
vn -0.71503698825836 -0.58480298519135 -0.38304999470711
vn 0.7155140042305 -0.58449399471283 -0.3826299905777
vn -0.31848698854446 0.66057199239731 0.67985999584198
vn -0.734001994133 0.57695400714874 0.35828098654747
vn -0.99720102548599 -0.012590399943292 -0.073696501553059
vn -0.96970897912979 0.040444798767567 -0.24089099466801
vn -0.63698798418045 -0.68863099813461 0.34645700454712
vn -0.28765898942947 -0.81721198558807 0.49941700696945
vn 0.6594859957695 -0.75007998943329 0.049567800015211

g 01001B0C-W942_0
usemtl 080009A9
f 1/1/1 2/3/2 3/5/3 
f 4/7/4 1/1/1 3/5/3 
f 4/7/4 3/5/3 5/9/5 
f 4/7/4 5/9/5 6/11/6 
f 7/13/7 4/7/4 6/11/6 
f 6/11/6 8/15/8 7/13/7 
f 30/45/30 31/47/31 19/29/19 
f 30/45/30 19/29/19 18/27/18 
f 30/45/30 18/27/18 25/36/25 
f 29/43/29 30/45/30 25/36/25 
f 26/38/26 27/40/27 29/43/29 
f 25/36/25 26/38/26 29/43/29 
# -- end 01001B0C-W942_0, 12 faces --


g 01001B0C-W942_1
usemtl 080009AB
f 3/6/3 9/17/9 10/18/10 
f 5/10/5 3/6/3 10/18/10 
f 2/4/2 11/19/11 9/17/9 
f 3/6/3 2/4/2 9/17/9 
f 1/2/1 12/20/12 11/19/11 
f 2/4/2 1/2/1 11/19/11 
f 13/21/13 12/20/12 1/2/1 
f 1/2/1 4/8/4 13/21/13 
f 7/14/7 14/22/14 13/21/13 
f 4/8/4 7/14/7 13/21/13 
f 15/23/15 14/22/14 7/14/7 
f 7/14/7 8/16/8 15/23/15 
f 16/24/16 15/23/15 8/16/8 
f 8/16/8 6/12/6 16/24/16 
f 6/12/6 5/10/5 10/18/10 
f 6/12/6 10/18/10 16/24/16 
f 17/25/17 18/26/18 19/28/19 
f 17/25/17 19/28/19 10/18/10 
f 10/18/10 9/17/9 17/25/17 
f 20/30/20 17/25/17 9/17/9 
f 9/17/9 11/19/11 20/30/20 
f 12/20/12 21/31/21 20/30/20 
f 11/19/11 12/20/12 20/30/20 
f 22/32/22 23/33/23 14/22/14 
f 14/22/14 15/23/15 22/32/22 
f 16/24/16 24/34/24 22/32/22 
f 15/23/15 16/24/16 22/32/22 
f 25/35/25 18/26/18 17/25/17 
f 17/25/17 20/30/20 25/35/25 
f 26/37/26 25/35/25 20/30/20 
f 20/30/20 21/31/21 26/37/26 
f 27/39/27 26/37/26 21/31/21 
f 28/41/28 27/39/27 21/31/21 
f 12/20/12 13/21/13 28/41/28 
f 21/31/21 12/20/12 28/41/28 
f 23/33/23 29/42/29 27/39/27 
f 23/33/23 27/39/27 28/41/28 
f 14/22/14 23/33/23 28/41/28 
f 28/41/28 13/21/13 14/22/14 
f 22/32/22 30/44/30 29/42/29 
f 23/33/23 22/32/22 29/42/29 
f 24/34/24 31/46/31 30/44/30 
f 22/32/22 24/34/24 30/44/30 
f 24/34/24 16/24/16 10/18/10 
f 24/34/24 10/18/10 19/28/19 
f 31/46/31 24/34/24 19/28/19 
# -- end 01001B0C-W942_1, 46 faces --





# -- END --
