# File automatically generated by Optim Shi. http://ac.yotesfan.com
# Thanks to Pea for some tips on getting over the final hurdle

# All models and images property of Turbine Entertainment Software. 

# GfxObj 0x01001a65

mtllib 01001A65-W6041.mtl

# List of geometric vertices, with (x,y,z[,w]) coordinates, w is optional and defaults to 1.0.
v -0.097984701395035 0.16971400380135 -0.103570997715
v -0.19596900045872 0 -0.0035715000703931
v 0 0 0.20126900076866
v -0.097984701395035 -0.19471399486065 0.021428499370813
v 0.097984701395035 0.16971400380135 -0.0035715000703931
v 0.19596900045872 0 -0.078571498394012
v 0.097984701395035 -0.16971400380135 -0.0035715000703931
v 0 0 -0.57776898145676

# List of texture coordinates, in (u, v [,w]) coordinates, these will vary between 0 and 1, w is optional and defaults to 0.
vt 0.25 0.33791100978851
vt 1 0.33791100978851
vt 0 0.22706300020218
vt 0.5343000292778 0.22706300020218
vt 0.5 0
vt 0.5343000292778 0
vt 0 0.19935101270676
vt 0.25 0.19935101270676
vt 0.75 0.22706300020218
vt 1 0.22706300020218
vt 0.5343000292778 0.31019902229309
vt 0.068600602447987 0.22706300020218
vt 0.75 0.22706300020218
vt 0.5343000292778 0.86355200409889
vt 0.5 0.86355200409889

# List of vertex normals in (x,y,z) form; normals might not be unit vectors.
vn -0.49473398923874 0.85690498352051 0.14474900066853
vn -0.97664701938629 0.080720499157906 0.19911099970341
vn 0.070390500128269 0.12820899486542 0.98924601078033
vn -0.45330598950386 -0.84936898946762 0.27034398913383
vn 0.48967999219894 0.85597902536392 0.16587099432945
vn 0.98636698722839 0 0.16456200182438
vn 0.58396601676941 -0.78532999753952 0.20552499592304
vn 0.01832240074873 -0.075810298323631 -0.99695402383804

g 01001A65-W6041_0
usemtl 080006A3
f 1/1/1 2/3/2 3/5/3 
f 3/6/3 2/4/2 4/7/4 
f 5/9/5 1/1/1 3/5/3 
f 3/6/3 6/11/6 5/10/5 
f 7/12/7 6/11/6 3/6/3 
f 4/8/4 7/13/7 3/5/3 
f 2/4/2 1/2/1 8/14/8 
f 1/1/1 5/9/5 8/15/8 
f 5/10/5 6/11/6 8/14/8 
f 6/11/6 7/12/7 8/14/8 
f 7/13/7 4/8/4 8/15/8 
f 4/7/4 2/4/2 8/14/8 
# -- end 01001A65-W6041_0, 12 faces --





# -- END --
