# File automatically generated by Optim Shi. http://ac.yotesfan.com
# Thanks to Pea for some tips on getting over the final hurdle

# All models and images property of Turbine Entertainment Software. 

# GfxObj 0x0100046d

mtllib 0100046D-W3715.mtl

# List of geometric vertices, with (x,y,z[,w]) coordinates, w is optional and defaults to 1.0.
v 0.029835000634193 -0.10000000149012 -0.14850099384785
v 0.035840298980474 -0.072213903069496 -0.25876599550247
v 0.086326703429222 -0.090504698455334 -0.092224799096584
v -0.086157500743866 -0.090457797050476 -0.093461900949478
v -0.036024801433086 -0.072213903069496 -0.25876599550247
v -0.029835000634193 -0.10000000149012 -0.14850099384785
v -0.1149709969759 0.061491400003433 -0.23174899816513
v -0.092980898916721 0.0045570698566735 0.0009376400266774
v -0.087642401456833 -0.082096002995968 -0.019491599872708
v 0.1149709969759 0.062231998890638 -0.23169800639153
v 0.10298100113869 0.0052876700647175 0.0011063199490309
v 0.087642401456833 -0.082096002995968 -0.019491599872708
v 0.00062605697894469 0.10094399750233 -0.019921800121665
v 0.0012070500524715 0.12432800233364 -0.2328860014677
v 0 -0.12432800233364 -0.1114280000329
v 0 -0.11232399940491 -0.0089926095679402
v 0 0.0044740000739694 0.026914700865746

# List of texture coordinates, in (u, v [,w]) coordinates, these will vary between 0 and 1, w is optional and defaults to 0.
vt 0.62975001335144 0.38597398996353
vt 0.65586698055267 0
vt 0.87542802095413 0.58296298980713
vt 0.12530699372292 0.57863301038742
vt 0.34333100914955 0
vt 0.37024998664856 0.38597398996353
vt 0 0.094570994377136
vt 0.095632903277874 0.90906950086355
vt 0.11885000020266 0.83755899965763
vt 1 0.094751000404358
vt 0.9478560090065 0.90965999662876
vt 0.88115000724792 0.83755899965763
vt 0.50272297859192 0.83605299890041
vt 0.5052490234375 0.09059202671051
vt 0.5 0.51574298739433
vt 0.5 0.87431000173092
vt 0.5 1

# List of vertex normals in (x,y,z) form; normals might not be unit vectors.
vn 0.3612399995327 -0.90867799520493 -0.20930700004101
vn 0.6424999833107 -0.71585702896118 -0.27339199185371
vn 0.79724901914597 -0.59685999155045 -0.090288802981377
vn -0.8163840174675 -0.57144498825073 -0.08347749710083
vn -0.64094001054764 -0.7171990275383 -0.27353599667549
vn -0.35850900411606 -0.9097980260849 -0.20913800597191
vn -0.94678199291229 0.32069399952888 0.027553599327803
vn -0.82037800550461 0.18173199892044 0.54217499494553
vn -0.58978897333145 -0.49398300051689 0.63884997367859
vn 0.94759601354599 0.31944599747658 0.0041209198534489
vn 0.82388800382614 0.14701099693775 0.54735398292542
vn 0.56582099199295 -0.52948999404907 0.63204997777939
vn -0.010872599668801 0.86041098833084 0.5094850063324
vn 0.0018066799966618 0.99402397871017 0.10914999991655
vn -0.00068218901287764 -0.99366497993469 0.11238300055265
vn -0.00039989899960347 -0.76150000095367 0.64816498756409
vn -0.0093610296025872 -0.040603898465633 0.99913102388382

g 0100046D-W3715_0
usemtl 08000581
f 1/1/1 2/2/2 3/3/3 
f 4/4/4 5/5/5 6/6/6 
f 7/7/7 5/5/5 4/4/4 
f 8/8/8 7/7/7 4/4/4 
f 4/4/4 9/9/9 8/8/8 
f 3/3/3 2/2/2 10/10/10 
f 3/3/3 10/10/10 11/11/11 
f 11/11/11 12/12/12 3/3/3 
f 7/7/7 8/8/8 13/13/13 
f 14/14/14 7/7/7 13/13/13 
f 10/10/10 14/14/14 13/13/13 
f 13/13/13 11/11/11 10/10/10 
f 9/9/9 4/4/4 15/15/15 
f 9/9/9 15/15/15 16/16/16 
f 15/15/15 3/3/3 12/12/12 
f 15/15/15 12/12/12 16/16/16 
f 16/16/16 17/17/17 9/9/9 
f 12/12/12 17/17/17 16/16/16 
f 17/17/17 13/13/13 8/8/8 
f 9/9/9 17/17/17 8/8/8 
f 11/11/11 17/17/17 12/12/12 
f 17/17/17 11/11/11 13/13/13 
# -- end 0100046D-W3715_0, 22 faces --





# -- END --
