# File automatically generated by Optim Shi. http://ac.yotesfan.com
# Thanks to Pea for some tips on getting over the final hurdle

# All models and images property of Turbine Entertainment Software. 

# GfxObj 0x01001b08

mtllib 01001B08-W942.mtl

# List of geometric vertices, with (x,y,z[,w]) coordinates, w is optional and defaults to 1.0.
v -0.12791299819946 0.0061837998218834 -0.27518400549889
v -0.034014701843262 0.041302800178528 -0.25718501210213
v 0.060505300760269 0.0061837998218834 -0.26546999812126
v -0.16618500649929 -0.078601002693176 -0.30892300605774
v 0.10027900338173 -0.078601002693176 -0.29518499970436
v -0.12641200423241 -0.16338600218296 -0.33863800764084
v 0.062006298452616 -0.16338600218296 -0.32892400026321
v -0.031892098486423 -0.19850499927998 -0.34692299365997
v -0.024297099560499 -0.028366800397635 0.084133796393871
v -0.0063404501415789 -0.069877900183201 0.071590103209019
v -0.0035993598867208 0.010602000169456 0.091094098985195
v 0.043653298169374 0.027269899845123 0.088572196662426
v 0.039776798337698 -0.086545802652836 0.060989700257778
v 0.087029501795769 -0.069877900183201 0.058467898517847
v 0.10774800181389 -0.028366800397635 0.065576002001762
v 0.089770600199699 0.010602000169456 0.077971801161766
v -0.06219070032239 -0.11709199845791 -0.068523496389389
v -0.085996001958847 -0.057760499417782 -0.053203500807285
v -0.0030397700611502 -0.14166800677776 -0.084266297519207
v 0.05680700019002 -0.11709199845791 -0.091210097074509
v 0.082292199134827 -0.057760499417782 -0.085287198424339
v 0.05848690122366 0.0015713199973106 -0.069967202842236
v -0.00066411099396646 0.026147399097681 -0.054224401712418
v -0.060510899871588 0.0015713199973106 -0.047280699014664
v -0.19741499423981 -0.22554099559784 -1.128839969635
v -0.29117900133133 -0.050000000745058 -1.0675400495529
v -0.0039468198083341 -0.2800509929657 -1.1238000392914
v 0.15465599298477 -0.20738500356674 -1.0584299564362
v 0.21130999922752 -0.050000000745058 -0.99452197551727
v 0.11510699987411 0.10484600067139 -0.91908997297287
v -0.069118499755859 0.16043299436569 -0.9254390001297
v -0.23696300387383 0.086690001189709 -0.98950397968292

# List of texture coordinates, in (u, v [,w]) coordinates, these will vary between 0 and 1, w is optional and defaults to 0.
vt 0.22057700157166 0.76460100710392
vt 0.22057700157166 0.15944397449493
vt 0.32491400837898 -0.018329977989197
vt 0.50600999593735 0.87004299461842
vt 0.50600999593735 0.200748026371
vt 0.51178097724915 0
vt 0.79333299398422 0.76460100710392
vt 0.79333299398422 0.18173497915268
vt 0.69988399744034 0
vt 0.10423599928617 0.51004299521446
vt 0.10423599928617 0.08201801776886
vt 0.24874900281429 -0.057119965553284
vt 0.91423600912094 0.51004299521446
vt 0.91423600912094 0.11354297399521
vt 0.77903699874878 -0.041329979896545
vt 0.22513900697231 0.2554839849472
vt 0.22513900697231 0.013826012611389
vt 0.32790100574493 -0.091300010681152
vt 0.797896027565 0.2554839849472
vt 0.797896027565 0.036117970943451
vt 0.70287102460861 -0.080129981040955
vt 0.51246297359467 0.15004301071167
vt 0.51246297359467 0
vt 0.51600497961044 -0.10081994533539
vt 0 0.51116898655891
vt 0.53554999828339 0.98402719944715
vt 0.13598899543285 0.14644700288773
vt 0.59013497829437 0.95524130016565
vt 0.1567469984293 0.85355299711227
vt 0.59846699237823 1
vt 0.5145999789238 1
vt 0.74210602045059 1
vt 0.48524299263954 0
vt 0.73032200336456 0.93091460317373
vt 0.84309500455856 0.14644700288773
vt 0.87396198511124 0.92512749880552
vt 1 0.51116898655891
vt 0.93694198131561 0.94143979996443
vt 0.86385399103165 0.85355299711227
vt 0.8822939991951 0.96988620050251
vt 0.42035999894142 0.63370001316071
vt 0.34799700975418 0.6688579916954
vt 0.60016798973083 0.59757301211357
vt 0.78209102153778 0.58163800835609
vt 0.85956102609634 0.5952300131321
vt 0.78719699382782 0.63038700819016
vt 0.60738998651505 0.66651499271393
vt 0.42546701431274 0.68244999647141
vt 0.18659900128841 -1
vt 0 -0.92949998378754
vt 0.57161897420883 -1
vt 0.88725197315216 -0.91902995109558
vt 1 -0.84554004669189
vt 0.8085470199585 -0.75879001617432
vt 0.44192099571228 -0.76609003543854
vt 0.10789400339127 -0.83976995944977

# List of vertex normals in (x,y,z) form; normals might not be unit vectors.
vn -0.57574397325516 0.79658198356628 -0.18432499468327
vn 0.045714300125837 0.99873501062393 -0.020941799506545
vn 0.59744799137115 0.7029709815979 -0.3858599960804
vn -0.96869802474976 0.15468800067902 -0.19415399432182
vn 0.91774499416351 0.14984700083733 -0.36781799793243
vn -0.67115902900696 -0.64086902141571 -0.37260401248932
vn 0.7821170091629 -0.55791199207306 -0.27753698825836
vn 0.077971696853638 -0.99657797813416 0.027454199269414
vn -0.65561199188232 -0.1298840045929 0.74384397268295
vn -0.27320000529289 -0.49372100830078 0.82559198141098
vn -0.52881097793579 0.35474398732185 0.7710480093956
vn 0.037264801561832 0.42774999141693 0.90312898159027
vn 0.027061799541116 -0.72743397951126 0.68564397096634
vn 0.53839898109436 -0.60845297574997 0.58301901817322
vn 0.93963998556137 -0.10226699709892 0.32652500271797
vn 0.72027099132538 0.60917598009109 0.33183398842812
vn -0.54981702566147 -0.75691902637482 0.3532350063324
vn -0.92278301715851 -0.038245599716902 0.38341799378395
vn 0.11502700299025 -0.95749098062515 0.26453599333763
vn 0.6869649887085 -0.71546500921249 0.1272400021553
vn 0.99704599380493 0.002556059975177 -0.076769702136517
vn 0.69103598594666 0.72140997648239 -0.045123398303986
vn 0.069008603692055 0.99761599302292 0.00099999702069908
vn -0.64379101991653 0.73755097389221 0.20384000241756
vn -0.60914498567581 -0.78446400165558 0.11643800139427
vn -0.95915901660919 -0.24185599386692 0.14669400453568
vn -0.083301402628422 -0.99105900526047 0.10422900319099
vn 0.5810369849205 -0.80425900220871 0.12475399672985
vn 0.98776602745056 0.0027774900663644 0.1559180021286
vn 0.53450399637222 0.82882297039032 0.16540299355984
vn -0.19196599721909 0.96517497301102 0.17772400379181
vn -0.82490301132202 0.53489702939987 0.18281200528145

g 01001B08-W942_0
usemtl 080009A9
f 1/1/1 2/4/2 3/7/3 
f 4/10/4 1/1/1 3/7/3 
f 4/10/4 3/7/3 5/13/5 
f 6/16/6 4/10/4 5/13/5 
f 7/19/7 8/22/8 6/16/6 
f 5/13/5 7/19/7 6/16/6 
f 9/25/9 10/27/10 11/29/11 
f 11/29/11 10/27/10 12/31/12 
f 10/27/10 13/33/13 12/31/12 
f 13/33/13 14/35/14 12/31/12 
f 15/37/15 16/39/16 14/35/14 
f 12/31/12 14/35/14 16/39/16 
# -- end 01001B08-W942_0, 12 faces --


g 01001B08-W942_1
usemtl 080009AB
f 17/41/17 10/28/10 18/42/18 
f 10/28/10 9/26/9 18/42/18 
f 19/43/19 13/34/13 17/41/17 
f 13/34/13 10/28/10 17/41/17 
f 20/44/20 14/36/14 19/43/19 
f 14/36/14 13/34/13 19/43/19 
f 20/44/20 21/45/21 14/36/14 
f 15/38/15 14/36/14 21/45/21 
f 22/46/22 16/40/16 21/45/21 
f 16/40/16 15/38/15 21/45/21 
f 22/46/22 23/47/23 16/40/16 
f 12/32/12 16/40/16 23/47/23 
f 23/47/23 24/48/24 12/32/12 
f 11/30/11 12/32/12 24/48/24 
f 9/26/9 11/30/11 18/42/18 
f 18/42/18 11/30/11 24/48/24 
f 6/17/6 17/41/17 4/11/4 
f 17/41/17 18/42/18 4/11/4 
f 6/17/6 8/23/8 17/41/17 
f 19/43/19 17/41/17 8/23/8 
f 7/20/7 20/44/20 8/23/8 
f 20/44/20 19/43/19 8/23/8 
f 7/20/7 5/14/5 20/44/20 
f 21/45/21 20/44/20 5/14/5 
f 3/8/3 22/46/22 5/14/5 
f 22/46/22 21/45/21 5/14/5 
f 3/8/3 2/5/2 22/46/22 
f 23/47/23 22/46/22 2/5/2 
f 1/2/1 24/48/24 2/5/2 
f 24/48/24 23/47/23 2/5/2 
f 1/2/1 4/11/4 24/48/24 
f 18/42/18 24/48/24 4/11/4 
# -- end 01001B08-W942_1, 32 faces --


g 01001B08-W942_2
usemtl 080009AC
f 25/49/25 6/18/6 26/50/26 
f 6/18/6 4/12/4 26/50/26 
f 25/49/25 27/51/27 6/18/6 
f 8/24/8 6/18/6 27/51/27 
f 27/51/27 28/52/28 8/24/8 
f 7/21/7 8/24/8 28/52/28 
f 28/52/28 29/53/29 7/21/7 
f 5/15/5 7/21/7 29/53/29 
f 30/54/30 3/9/3 29/53/29 
f 3/9/3 5/15/5 29/53/29 
f 31/55/31 2/6/2 30/54/30 
f 2/6/2 3/9/3 30/54/30 
f 32/56/32 1/3/1 31/55/31 
f 1/3/1 2/6/2 31/55/31 
f 26/50/26 4/12/4 32/56/32 
f 4/12/4 1/3/1 32/56/32 
# -- end 01001B08-W942_2, 16 faces --





# -- END --
