# File automatically generated by Optim Shi. http://ac.yotesfan.com
# Thanks to Pea for some tips on getting over the final hurdle

# All models and images property of Turbine Entertainment Software. 

# GfxObj 0x01001b10

mtllib 01001B10-W942.mtl

# List of geometric vertices, with (x,y,z[,w]) coordinates, w is optional and defaults to 1.0.
v -0.17988699674606 -0.17406499385834 0.067830502986908
v -0.085034802556038 -0.21338200569153 0.016999699175358
v 0.016832800582051 -0.16156099736691 0.0090015698224306
v 0.066043697297573 -0.048956900835037 0.048521399497986
v -0.2121600061655 -0.06664089858532 0.13171799480915
v -0.16294899582863 0.045962799340487 0.17123800516129
v 0.033770699054003 0.058467298746109 0.11240900307894
v -0.061081100255251 0.097784399986267 0.16324000060558
v -0.11778199672699 -0.031818501651287 -0.45700100064278
v -0.095007501542568 0.035588901489973 -0.44656598567963
v -0.095007501542568 -0.098330803215504 -0.47204399108887
v -0.040025599300861 -0.12606599926949 -0.47732099890709
v -0.040025599300861 0.063324503600597 -0.44128900766373
v 0.01495619956404 0.035588901489973 -0.44656598567963
v 0.037730399519205 -0.031818501651287 -0.45700100064278
v 0.01495619956404 -0.098330803215504 -0.47204399108887
v -0.098760202527046 0.062794901430607 -0.26803600788116
v -0.12192100286484 -0.0078638503327966 -0.28135299682617
v -0.038573399186134 0.093184597790241 -0.2593269944191
v 0.023255599662662 0.064109697937965 -0.25886800885201
v 0.050635099411011 -0.0060045099817216 -0.26838800311089
v 0.027220200747252 -0.079450502991676 -0.27878201007843
v -0.032966498285532 -0.10983999818563 -0.28749001026154
v -0.094795502722263 -0.080765202641487 -0.28795000910759

# List of texture coordinates, in (u, v [,w]) coordinates, these will vary between 0 and 1, w is optional and defaults to 0.
vt 0.15825499594212 0.11287599802017
vt 0.15825499594212 0.021314024925232
vt 0.48430201411247 0
vt 0.48430201411247 -0.056020021438599
vt 0.83446502685547 0.15022897720337
vt 0.83446502685547 -0.068189978599548
vt 1 0.48658800125122
vt 1 0
vt 0.047318898141384 0.43376398086548
vt 0.047318898141384 0.11851298809052
vt 0.21647800505161 0.77012400329113
vt 0.21647800505161 0.17863899469376
vt 0.892687022686 0.80747599899769
vt 0.892687022686 0.089136004447937
vt 0.56664097309113 0.92492060363293
vt 0.56664097309113 0.16647100448608
vt 0.32151800394058 0.34479397535324
vt 0.37173599004745 -0.77716994285583
vt 0.46796500682831 0.71408298611641
vt 0.45002099871635 -0.76129996776581
vt 0.46796500682831 -0.019590020179749
vt 0.45002099871635 -0.80006003379822
vt 0.82151800394058 -0.17154002189636
vt 0.63901799917221 -0.80808997154236
vt 0.82151800394058 0.86603100597858
vt 0.63901799917221 -0.75327003002167
vt 1.1750700473785 0.71408298611641
vt 0.82801401615143 -0.76129996776581
vt 1.3215199708939 0.34479397535324
vt 0.90629899501801 -0.77716994285583
vt 1.1750700473785 -0.019590020179749
vt 0.82801401615143 -0.80006003379822
vt 0.43712198734283 -0.48968005180359
vt 0.35750699043274 -0.50994002819061
vt 0.64401000738144 -0.47643005847931
vt 0.85654199123383 -0.47572994232178
vt 0.95065701007843 -0.49021005630493
vt 0.87017101049423 -0.50602996349335
vt 0.66328299045563 -0.51927995681763
vt 0.45074999332428 -0.51997995376587

# List of vertex normals in (x,y,z) form; normals might not be unit vectors.
vn -0.20173899829388 -0.72786599397659 0.65537202358246
vn 0.071284398436546 -0.99488997459412 -0.071496300399303
vn 0.6037409901619 -0.66207200288773 0.44402399659157
vn 0.79954099655151 -0.27891600131989 0.5319219827652
vn -0.94506502151489 -0.16173200309277 0.28406700491905
vn -0.20074699819088 0.01776310056448 0.97948199510574
vn 0.73869401216507 0.14407600462437 0.65846300125122
vn 0.058295898139477 0.96758598089218 0.24572199583054
vn -0.88643002510071 0.082970000803471 -0.45536598563194
vn -0.53304499387741 0.46189901232719 -0.70888102054596
vn -0.74405801296234 -0.36816498637199 -0.55752402544022
vn -0.10055799782276 -0.46278500556946 -0.88074898719788
vn -0.11030600219965 0.78019297122955 -0.61573702096939
vn 0.52169299125671 0.56466400623322 -0.63952398300171
vn 0.86997097730637 0.087452903389931 -0.48528599739075
vn 0.72102200984955 -0.50730001926422 -0.4719879925251
vn -0.69406402111053 0.71207398176193 -0.1059520021081
vn -0.99636197090149 -0.002312189899385 -0.085190698504448
vn 0.089594297111034 0.99058699607849 -0.10349100083113
vn 0.7313089966774 0.68048697710037 -0.046083699911833
vn 0.99777901172638 0.028171999379992 -0.060362000018358
vn 0.75260502099991 -0.65010398626328 -0.10464599728584
vn 0.12000299990177 -0.98952299356461 -0.080267496407032
vn -0.72484201192856 -0.67116802930832 -0.15536600351334

g 01001B10-W942_0
usemtl 080009A9
f 1/1/1 2/3/2 3/5/3 
f 1/1/1 3/5/3 4/7/4 
f 5/9/5 1/1/1 4/7/4 
f 6/11/6 5/9/5 4/7/4 
f 7/13/7 8/15/8 6/11/6 
f 4/7/4 7/13/7 6/11/6 
f 9/17/9 10/19/10 11/21/11 
f 11/21/11 10/19/10 12/23/12 
f 10/19/10 13/25/13 12/23/12 
f 13/25/13 14/27/14 12/23/12 
f 15/29/15 16/31/16 14/27/14 
f 12/23/12 14/27/14 16/31/16 
# -- end 01001B10-W942_0, 12 faces --


g 01001B10-W942_1
usemtl 080009AB
f 17/33/17 10/20/10 18/34/18 
f 10/20/10 9/18/9 18/34/18 
f 19/35/19 13/26/13 17/33/17 
f 13/26/13 10/20/10 17/33/17 
f 20/36/20 14/28/14 19/35/19 
f 14/28/14 13/26/13 19/35/19 
f 20/36/20 21/37/21 14/28/14 
f 15/30/15 14/28/14 21/37/21 
f 22/38/22 16/32/16 21/37/21 
f 16/32/16 15/30/15 21/37/21 
f 22/38/22 23/39/23 16/32/16 
f 12/24/12 16/32/16 23/39/23 
f 23/39/23 24/40/24 12/24/12 
f 11/22/11 12/24/12 24/40/24 
f 9/18/9 11/22/11 18/34/18 
f 18/34/18 11/22/11 24/40/24 
f 6/12/6 17/33/17 5/10/5 
f 17/33/17 18/34/18 5/10/5 
f 6/12/6 8/16/8 17/33/17 
f 19/35/19 17/33/17 8/16/8 
f 7/14/7 20/36/20 8/16/8 
f 20/36/20 19/35/19 8/16/8 
f 7/14/7 4/8/4 20/36/20 
f 21/37/21 20/36/20 4/8/4 
f 3/6/3 22/38/22 4/8/4 
f 22/38/22 21/37/21 4/8/4 
f 3/6/3 2/4/2 22/38/22 
f 23/39/23 22/38/22 2/4/2 
f 1/2/1 24/40/24 2/4/2 
f 24/40/24 23/39/23 2/4/2 
f 1/2/1 5/10/5 24/40/24 
f 18/34/18 24/40/24 5/10/5 
# -- end 01001B10-W942_1, 32 faces --





# -- END --
