# File automatically generated by Optim Shi. http://ac.yotesfan.com
# Thanks to Pea for some tips on getting over the final hurdle

# All models and images property of Turbine Entertainment Software. 

# GfxObj 0x01001b24

mtllib 01001B24-W942.mtl

# List of geometric vertices, with (x,y,z[,w]) coordinates, w is optional and defaults to 1.0.
v 0.23593899607658 -0.26466500759125 0.27333700656891
v 0.29611098766327 -0.51095902919769 0.83432602882385
v 0.0020433999598026 -0.62187999486923 0.77223998308182
v -0.0007999999797903 -0.36790901422501 0.24567300081253
v 0.33399999141693 -0.015411799773574 0.34012401103973
v 0.23593899607658 0.23384100198746 0.4069119989872
v 0.29036399722099 0.045341398566961 1.0365899801254
v 0.41553699970245 -0.2345869988203 0.94382399320602
v -0.0007999999797903 0.33708500862122 0.43457600474358
v -0.0060838800854981 0.16484700143337 1.0582900047302
v -0.30015200376511 0.053926598280668 0.99620097875595
v -0.23753899335861 0.23384100198746 0.4069119989872
v -0.33559998869896 -0.015411799773574 0.34012401103973
v -0.41957798600197 -0.22244499623775 0.88670301437378
v -0.23753899335861 -0.26466500759125 0.27333700656891
v -0.29440501332283 -0.5023729801178 0.79393500089645
v 0.23719300329685 0.24060399830341 0.080619998276234
v 0.32690000534058 0.031410798430443 0.024566799402237
v 0.23719300329685 -0.17778199911118 -0.031486298888922
v 0.020619999617338 -0.26443299651146 -0.054704301059246
v 0.020619999617338 0.32725501060486 0.10383799672127
v -0.1959529966116 0.24060399830341 0.080619998276234
v -0.1959529966116 -0.17778199911118 -0.031486298888922
v -0.28565999865532 0.031410798430443 0.024566799402237
v 0.059168100357056 0.3279060125351 -0.040276400744915
v 0.24058200418949 0.2372280061245 -0.042821601033211
v -0.18087799847126 0.24454200267792 -0.08430390059948
v -0.17757399380207 -0.1156309992075 -0.2367399930954
v 0.063840702176094 -0.2063090056181 -0.23928500711918
v 0.26388600468636 -0.1229450032115 -0.21525800228119

# List of texture coordinates, in (u, v [,w]) coordinates, these will vary between 0 and 1, w is optional and defaults to 0.
vt 0.78494197130203 0.32852500677109
vt 0.85699397325516 0.89034099876881
vt 0.85699397325516 0.1409900188446
vt 0.50486600399017 0.82816399633884
vt 0.50486600399017 0
vt 0.50146102905273 0.3008199930191
vt 0.90236401557922 0.30526399612427
vt 0.90236401557922 0.39541101455688
vt 0.78494197130203 0.36987298727036
vt 0.85011297464371 0.97901239991188
vt 0.85011297464371 0.84809699654579
vt 1 0.88927099853754
vt 1 1
vt 1 0.49228399991989
vt 0.50146102905273 0.39663499593735
vt 0.49513399600983 1
vt 0.49513399600983 1
vt 0.14300599694252 0.93993959948421
vt 0.14300599694252 0.85900999605656
vt 0.21797999739647 0.36987298727036
vt 0.10055799782276 0.30526399612427
vt 0.10055799782276 0.39541101455688
vt 0 0.83401300013065
vt 0 0.94279500097036
vt 0 0.50771600008011
vt 0.21797999739647 0.32852500677109
vt 0.14988699555397 0.84989100694656
vt 0.14988699555397 0.15190297365189
vt 0.85355299711227 0.85355299711227
vt 1 0.12340700626373
vt 0.78644299507141 0.054225027561188
vt 1 0.5
vt 0.89386200904846 0
vt 0.89386200904846 0.079388022422791
vt 0.85355299711227 0.14644700288773
vt 0.94195002317429 0
vt 0.78644299507141 0.023252010345459
vt 0.5 0
vt 0.47097501158714 0.11173301935196
vt 0.52710998058319 0
vt 0.5 1
vt 0.49611800909042 0
vt 0.52710998058319 0.076685011386871
vt 0.14644700288773 0.85355299711227
vt 0 0.12340700626373
vt 0.26777800917625 0.054225027561188
vt 0.14644700288773 0.14644700288773
vt 0 0
vt 0.26777800917625 0.023252010345459
vt 0 0.5
vt 0.1603589951992 0
vt 0.1603589951992 0.079388022422791
vt 0.58442199230194 0.76598800718784
vt 1 0.77951499819756
vt 0.034533500671387 1
vt 0.039968501776457 0.98775179963559
vt 0.56496602296829 1
vt 1 0.8843709975481

# List of vertex normals in (x,y,z) form; normals might not be unit vectors.
vn 0.67734897136688 -0.68502098321915 -0.26822400093079
vn 0.4743959903717 -0.72702300548553 0.49637201428413
vn -0.039379600435495 -0.96321398019791 0.26583498716354
vn -0.083056703209877 -0.92571198940277 -0.36899599432945
vn 0.98759597539902 0.15254099667072 -0.037221200764179
vn 0.66093397140503 0.74787801504135 0.062008399516344
vn 0.55257397890091 0.34360200166702 0.75934201478958
vn 0.9178249835968 -0.12618599832058 0.37639701366425
vn -0.058331999927759 0.989108979702 0.13513199985027
vn -0.06368599832058 0.22284799814224 0.97277098894119
vn -0.68073999881744 0.45111799240112 0.57713502645493
vn -0.72050499916077 0.69294202327728 0.026535199955106
vn -0.9796199798584 0.16832299530506 -0.10960000008345
vn -0.96889799833298 -0.19497300684452 0.15238599479198
vn -0.74945402145386 -0.58331000804901 -0.31315898895264
vn -0.43679800629616 -0.64147597551346 0.63064801692963
vn 0.51593399047852 0.72109800577164 -0.46241700649261
vn 0.92919397354126 -0.024336200207472 -0.36879101395607
vn 0.49147498607635 -0.5976790189743 -0.63342899084091
vn 0.011567199602723 -0.60661900043488 -0.79490798711777
vn 0.015883000567555 0.95219200849533 -0.30508801341057
vn -0.48065000772476 0.70778298377991 -0.51770502328873
vn -0.471116989851 -0.54478001594543 -0.69373202323914
vn -0.88315600156784 0.0071854498237371 -0.46902400255203
vn 0.18244099617004 0.9832050204277 0.0048712198622525
vn 0.44692799448967 0.89448702335358 -0.012191600166261
vn -0.34250101447105 0.93840402364731 -0.045732900500298
vn -0.35732099413872 -0.87512201070786 -0.32631701231003
vn 0.15912100672722 -0.94985699653625 -0.26917099952698
vn 0.39744499325752 -0.89353197813034 -0.20889799296856

g 01001B24-W942_0
usemtl 080009A7
f 1/1/1 2/2/2 3/4/3 
f 3/4/3 4/6/4 1/1/1 
f 15/26/15 16/27/16 14/24/14 
f 13/22/13 15/26/15 14/24/14 
f 15/26/15 4/6/4 3/4/3 
f 16/27/16 15/26/15 3/4/3 
f 15/26/15 13/22/13 24/52/24 
f 24/52/24 23/49/23 15/26/15 
f 4/6/4 15/26/15 23/49/23 
f 23/49/23 20/40/20 4/6/4 
f 1/1/1 4/6/4 20/40/20 
f 20/40/20 19/37/19 1/1/1 
f 18/34/18 5/8/5 1/1/1 
f 19/37/19 18/34/18 1/1/1 
f 2/2/2 1/1/1 5/8/5 
f 2/2/2 5/8/5 8/13/8 
# -- end 01001B24-W942_0, 16 faces --


g 01001B24-W942_1
usemtl 080009A8
f 5/7/5 6/9/6 7/10/7 
f 8/12/8 5/7/5 7/10/7 
f 9/15/9 10/16/10 7/10/7 
f 6/9/6 9/15/9 7/10/7 
f 11/18/11 10/16/10 9/15/9 
f 9/15/9 12/20/12 11/18/11 
f 13/21/13 14/23/14 11/18/11 
f 12/20/12 13/21/13 11/18/11 
f 17/31/17 6/9/6 5/7/5 
f 18/33/18 17/31/17 5/7/5 
f 21/43/21 9/15/9 6/9/6 
f 17/31/17 21/43/21 6/9/6 
f 22/46/22 12/20/12 9/15/9 
f 21/43/21 22/46/22 9/15/9 
f 13/21/13 12/20/12 22/46/22 
f 22/46/22 24/51/24 13/21/13 
# -- end 01001B24-W942_1, 16 faces --


g 01001B24-W942_2
usemtl 080009A9
f 17/29/17 18/32/18 19/35/19 
f 17/29/17 19/35/19 20/38/20 
f 21/41/21 17/29/17 20/38/20 
f 22/44/22 21/41/21 20/38/20 
f 22/44/22 20/38/20 23/47/23 
f 24/50/24 22/44/22 23/47/23 
f 11/19/11 14/25/14 16/28/16 
f 10/17/10 11/19/11 16/28/16 
f 10/17/10 16/28/16 3/5/3 
f 7/11/7 10/17/10 3/5/3 
f 2/3/2 8/14/8 7/11/7 
f 7/11/7 3/5/3 2/3/2 
# -- end 01001B24-W942_2, 12 faces --


g 01001B24-W942_3
usemtl 080009AA
f 25/53/25 21/42/21 17/30/17 
f 26/54/26 25/53/25 17/30/17 
f 27/55/27 22/45/22 21/42/21 
f 25/53/25 27/55/27 21/42/21 
f 20/39/20 23/48/23 28/56/28 
f 28/56/28 29/57/29 20/39/20 
f 19/36/19 20/39/20 29/57/29 
f 29/57/29 30/58/30 19/36/19 
# -- end 01001B24-W942_3, 8 faces --





# -- END --
